# xmcd
#
# Track frame offsets:
#	150
#	17556
#	34560
#	47969
#	64817
#	80558
#	93309
#	115491
#	130364
#	144004
#	158373
#
# Disc length: 2470 seconds
#
# Revision: 1
# Processed by: cddbd v1.5.2PL0 Copyright (c) Steve Scherf et al.
# Submitted via: audiograbber 1.83.01
#
DISCID=8609a40b
DTITLE=LANCO - Hallelujah Nights
DYEAR=2018
DGENRE=Country
TTITLE0=Born to Love You
TTITLE1=Long Live Tonight
TTITLE2=Pick You Up
TTITLE3=Greatest Love Story
TTITLE4=We Do
TTITLE5=Trouble Maker
TTITLE6=Singin' at the Stars
TTITLE7=Win You Over
TTITLE8=So Long (I Do)
TTITLE9=Middle of the Night
TTITLE10=Hallelujah Nights
EXTD=
EXTT0=
EXTT1=
EXTT2=
EXTT3=
EXTT4=
EXTT5=
EXTT6=
EXTT7=
EXTT8=
EXTT9=
EXTT10=
PLAYORDER=
